<svg xmlns="http://www.w3.org/2000/svg" width="512" height="512" viewBox="0 0 512 512">
  <defs>
    <radialGradient id="bg" cx="50%" cy="40%" r="75%">
      <stop offset="0%" stop-color="#ffffff" stop-opacity="0.08"/>
      <stop offset="100%" stop-color="#ffffff" stop-opacity="0"/>
    </radialGradient>
  </defs>
  <rect width="512" height="512" fill="none"/>
  <rect width="512" height="512" fill="url(#bg)"/>
  <g fill="#ffffff" fill-opacity="0.04">
    <circle cx="48" cy="56" r="1.6"/>
    <circle cx="128" cy="92" r="1.6"/>
    <circle cx="224" cy="48" r="1.6"/>
    <circle cx="324" cy="116" r="1.6"/>
    <circle cx="420" cy="68" r="1.6"/>
    <circle cx="88" cy="188" r="1.6"/>
    <circle cx="188" cy="156" r="1.6"/>
    <circle cx="292" cy="192" r="1.6"/>
    <circle cx="392" cy="156" r="1.6"/>
    <circle cx="468" cy="210" r="1.6"/>
    <circle cx="60" cy="320" r="1.6"/>
    <circle cx="148" cy="280" r="1.6"/>
    <circle cx="244" cy="332" r="1.6"/>
    <circle cx="356" cy="292" r="1.6"/>
    <circle cx="452" cy="344" r="1.6"/>
    <circle cx="112" cy="432" r="1.6"/>
    <circle cx="228" cy="396" r="1.6"/>
    <circle cx="340" cy="436" r="1.6"/>
    <circle cx="448" cy="404" r="1.6"/>
  </g>
</svg>

