<svg xmlns="http://www.w3.org/2000/svg" width="128" height="512" viewBox="0 0 128 512">
  <rect width="128" height="512" fill="none"/>
  <g stroke="#ffffff" stroke-opacity="0.30" stroke-width="2" stroke-linecap="round">
    <line x1="18" y1="36" x2="38" y2="36"/>
    <line x1="18" y1="72" x2="30" y2="72"/>
    <line x1="18" y1="108" x2="38" y2="108"/>
    <line x1="18" y1="144" x2="30" y2="144"/>
    <line x1="18" y1="180" x2="38" y2="180"/>
    <line x1="18" y1="216" x2="30" y2="216"/>
    <line x1="18" y1="252" x2="38" y2="252"/>
    <line x1="18" y1="288" x2="30" y2="288"/>
    <line x1="18" y1="324" x2="38" y2="324"/>
    <line x1="18" y1="360" x2="30" y2="360"/>
    <line x1="18" y1="396" x2="38" y2="396"/>
    <line x1="18" y1="432" x2="30" y2="432"/>
    <line x1="18" y1="468" x2="38" y2="468"/>
  </g>
  <g fill="#ffffff" fill-opacity="0.08">
    <circle cx="60" cy="36" r="1.4"/>
    <circle cx="60" cy="108" r="1.4"/>
    <circle cx="60" cy="180" r="1.4"/>
    <circle cx="60" cy="252" r="1.4"/>
    <circle cx="60" cy="324" r="1.4"/>
    <circle cx="60" cy="396" r="1.4"/>
    <circle cx="60" cy="468" r="1.4"/>
  </g>
</svg>

